<?xml version="1.0" standalone="no"?>
<!DOCTYPE svg PUBLIC "-//W3C//DTD SVG 20010904//EN"
 "http://www.w3.org/TR/2001/REC-SVG-20010904/DTD/svg10.dtd">
<svg version="1.0" xmlns="http://www.w3.org/2000/svg"
 width="700.000000pt" height="700.000000pt" viewBox="0 0 700.000000 700.000000"
 preserveAspectRatio="xMidYMid meet">
<metadata>
Created by potrace 1.11, written by Peter Selinger 2001-2013
</metadata>
<g transform="translate(0.000000,700.000000) scale(0.100000,-0.100000)"
fill="#000000" stroke="none">
<path d="M3391 6584 c-218 -58 -359 -273 -323 -491 17 -99 61 -180 137 -251
35 -33 80 -66 99 -73 35 -13 36 -14 36 -66 0 -50 10 -67 26 -42 13 21 89 49
134 49 45 0 121 -28 134 -49 16 -25 26 -8 26 42 0 52 1 53 36 66 19 7 64 40
99 73 146 136 183 336 95 514 -90 182 -304 281 -499 228z"/>
<path d="M3389 5648 l-64 -33 -3 -117 c-2 -109 4 -139 23 -108 17 28 92 54
155 54 63 0 138 -26 155 -54 18 -29 25 0 25 104 0 113 0 115 -27 136 -77 61
-167 67 -264 18z"/>
<path d="M3408 5401 c-25 -10 -60 -28 -77 -40 l-31 -22 0 -124 c0 -124 6 -148
31 -119 19 24 84 54 137 64 61 11 132 -3 180 -35 20 -14 40 -25 44 -25 5 0 8
53 8 118 0 110 -2 120 -22 140 -64 59 -180 78 -270 43z"/>
<path d="M3413 5112 c-28 -10 -67 -31 -87 -46 -36 -27 -36 -28 -36 -102 l0
-74 -290 0 -289 0 -133 73 c-73 41 -143 79 -155 86 l-23 12 0 -281 0 -280 399
0 400 0 -35 -102 c-33 -98 -34 -108 -34 -248 l0 -145 -51 -18 -50 -18 3 -230
3 -231 28 -24 c15 -13 37 -24 48 -24 18 0 19 -8 19 -134 l0 -134 -50 -18 -50
-18 0 -213 c0 -242 5 -263 65 -283 l35 -12 0 -117 0 -117 -47 -15 -48 -15 -3
-218 -2 -217 29 -30 c16 -16 39 -29 50 -29 20 0 21 -5 21 -144 l0 -144 -51
-17 -50 -17 3 -225 c3 -211 4 -226 23 -239 11 -9 32 -18 48 -21 26 -5 27 -8
27 -66 0 -60 0 -61 124 -251 68 -105 154 -238 191 -295 l67 -103 194 291 194
292 0 248 0 248 60 18 60 18 0 217 c0 249 -2 257 -78 267 l-42 6 0 142 0 143
58 19 57 20 3 222 c1 139 -1 229 -8 241 -6 11 -33 27 -60 37 l-51 18 3 109 3
110 58 20 57 21 0 221 c0 250 -1 253 -75 278 l-40 14 -3 130 -3 130 58 19 58
20 3 216 c2 212 2 216 -20 242 -17 19 -36 27 -75 32 -50 5 -53 7 -66 47 -8 22
-18 49 -22 59 -7 16 15 17 379 17 l386 0 0 280 0 281 -22 -12 c-13 -7 -83 -45
-156 -86 l-132 -73 -290 0 -290 0 0 73 c0 67 -2 75 -27 99 -68 63 -176 84
-270 50z m-16 -689 l83 -68 -2 -114 -3 -115 -149 -53 c-82 -29 -153 -53 -158
-53 -4 0 -8 57 -8 127 0 120 2 135 36 235 l36 108 40 0 c35 0 52 -9 125 -67z
m436 -35 c20 -57 37 -107 37 -113 0 -8 -311 -125 -333 -125 -4 0 -7 46 -6 103
l0 102 80 68 c77 64 83 67 133 67 l52 0 37 -102z m135 -61 c20 -16 14 -25 -24
-37 -41 -14 -40 -15 -49 27 -7 33 -6 33 27 26 18 -3 39 -10 46 -16z m-98 -686
l0 -188 -72 -26 c-40 -15 -117 -42 -170 -61 l-98 -35 0 192 0 192 158 57 c86
31 163 57 170 57 9 1 12 -43 12 -188z m-390 -135 c0 -176 -2 -194 -17 -199
-10 -2 -82 -27 -161 -55 l-142 -50 2 191 3 192 155 56 c85 31 156 57 158 58 1
1 2 -86 2 -193z m-350 24 c0 -33 -3 -38 -17 -33 -47 16 -57 48 -20 63 35 14
37 12 37 -30z m837 -2 c12 -9 18 -38 9 -38 -2 0 -20 -7 -40 -15 l-36 -15 0 46
c0 45 0 46 27 39 16 -4 34 -11 40 -17z m-97 -681 l0 -172 -165 -57 -165 -57 0
172 0 172 158 57 c86 31 160 57 165 57 4 1 7 -77 7 -172z m-392 -138 l-3 -172
-150 -53 c-82 -29 -153 -54 -158 -54 -4 0 -6 77 -5 171 l3 171 150 54 c83 29
153 53 158 53 4 1 6 -76 5 -170z m503 29 c8 -15 3 -20 -27 -33 -52 -21 -54
-20 -54 29 l0 44 36 -11 c19 -6 40 -19 45 -29z m-851 -13 c0 -27 -4 -35 -18
-35 -21 0 -42 18 -42 36 0 10 20 21 58 33 1 1 2 -15 2 -34z m740 -674 l0 -189
-152 -52 c-84 -30 -159 -55 -165 -58 -10 -3 -13 38 -13 186 l0 190 43 16 c137
51 264 95 275 95 9 1 12 -43 12 -188z m-390 -133 l0 -193 -149 -52 c-82 -29
-154 -53 -160 -53 -8 0 -11 61 -11 188 l0 187 158 57 c86 31 158 57 160 57 1
1 2 -86 2 -191z m-350 32 c0 -35 -9 -37 -41 -11 l-24 20 25 10 c37 15 40 14
40 -19z m831 -20 c28 -16 24 -25 -21 -43 l-40 -15 0 34 c0 28 4 34 21 34 11 0
29 -5 40 -10z m-91 -730 l0 -230 -165 -248 -165 -247 0 421 0 420 158 56 c86
31 160 57 165 57 4 1 7 -103 7 -229z m-390 -312 c0 -221 -2 -399 -5 -397 -2 3
-74 113 -160 245 l-156 239 3 104 3 104 145 52 c80 29 151 53 158 54 9 1 12
-85 12 -401z m-353 226 c-7 -7 -57 15 -57 25 0 5 12 14 28 19 24 8 27 6 30
-15 2 -14 2 -27 -1 -29z"/>
</g>
</svg>
